<svg width="42" height="50" viewBox="0 0 42 50" version="1.1" xmlns="http://www.w3.org/2000/svg" xmlns:xlink="http://www.w3.org/1999/xlink" xmlns:figma="http://www.figma.com/figma/ns">
<title>Copy 2</title>
<desc>Created using Figma</desc>
<g id="Canvas" transform="translate(-3862 -1548)" figma:type="canvas">
<g id="Copy 2" style="mix-blend-mode:normal;" figma:type="frame">
<g id="Vector" style="mix-blend-mode:normal;" figma:type="vector">
<use xlink:href="#path0_fill" transform="translate(3863 1558.23)" style="mix-blend-mode:normal;"/>
<use xlink:href="#path1_stroke" transform="translate(3863 1558.23)" style="mix-blend-mode:normal;"/>
</g>
<g id="Vector" style="mix-blend-mode:normal;" figma:type="vector">
<use xlink:href="#path2_fill" transform="translate(3884.2 1558.73)" style="mix-blend-mode:normal;"/>
<use xlink:href="#path3_stroke" transform="translate(3884.2 1558.73)" style="mix-blend-mode:normal;"/>
</g>
<g id="Vector" style="mix-blend-mode:normal;" figma:type="vector">
<use xlink:href="#path4_fill" transform="translate(3872.23 1549)" style="mix-blend-mode:normal;"/>
<use xlink:href="#path5_stroke" transform="translate(3872.23 1549)" style="mix-blend-mode:normal;"/>
</g>
<g id="Vector" style="mix-blend-mode:normal;" figma:type="vector">
<use xlink:href="#path6_fill" transform="translate(3893.43 1549.5)" style="mix-blend-mode:normal;"/>
<use xlink:href="#path7_stroke" transform="translate(3893.43 1549.5)" style="mix-blend-mode:normal;"/>
</g>
</g>
</g>
<defs>
<path  fill="#ffffff" stroke="#ffffff" id="path0_fill" d="M 30.4275 38.7706L -2.24609e-07 38.7706L -2.24609e-07 -3.02734e-07L 21.9085 -3.02734e-07L 30.4275 8.26112L 30.4275 38.7706ZM 1.01056 37.76L 29.417 37.76L 29.417 8.68928L 21.4982 1.01056L 1.01056 1.01056L 1.01056 37.76Z"/>
<path  fill="#ffffff" stroke="#ffffff" id="path1_stroke" d="M 30.4275 38.7706L 30.4275 39.5206L 31.1775 39.5206L 31.1775 38.7706L 30.4275 38.7706ZM -2.24609e-07 38.7706L -0.75 38.7706L -0.75 39.5206L -2.24609e-07 39.5206L -2.24609e-07 38.7706ZM -2.24609e-07 -3.02734e-07L -2.24609e-07 -0.75L -0.75 -0.75L -0.75 -3.02734e-07L -2.24609e-07 -3.02734e-07ZM 21.9085 -3.02734e-07L 22.4306 -0.538418L 22.2124 -0.75L 21.9085 -0.75L 21.9085 -3.02734e-07ZM 30.4275 8.26112L 31.1775 8.26112L 31.1775 7.94368L 30.9496 7.7227L 30.4275 8.26112ZM 1.01056 37.76L 0.26056 37.76L 0.26056 38.51L 1.01056 38.51L 1.01056 37.76ZM 29.417 37.76L 29.417 38.51L 30.167 38.51L 30.167 37.76L 29.417 37.76ZM 29.417 8.68928L 30.167 8.68928L 30.167 8.37184L 29.9391 8.15085L 29.417 8.68928ZM 21.4982 1.01056L 22.0203 0.472133L 21.8022 0.26056L 21.4982 0.26056L 21.4982 1.01056ZM 1.01056 1.01056L 1.01056 0.26056L 0.26056 0.26056L 0.26056 1.01056L 1.01056 1.01056ZM 30.4275 38.0206L -2.24609e-07 38.0206L -2.24609e-07 39.5206L 30.4275 39.5206L 30.4275 38.0206ZM 0.75 38.7706L 0.75 -3.02734e-07L -0.75 -3.02734e-07L -0.75 38.7706L 0.75 38.7706ZM -2.24609e-07 0.75L 21.9085 0.75L 21.9085 -0.75L -2.24609e-07 -0.75L -2.24609e-07 0.75ZM 21.3864 0.538418L 29.9054 8.79954L 30.9496 7.7227L 22.4306 -0.538418L 21.3864 0.538418ZM 29.6775 8.26112L 29.6775 38.7706L 31.1775 38.7706L 31.1775 8.26112L 29.6775 8.26112ZM 1.01056 38.51L 29.417 38.51L 29.417 37.01L 1.01056 37.01L 1.01056 38.51ZM 30.167 37.76L 30.167 8.68928L 28.667 8.68928L 28.667 37.76L 30.167 37.76ZM 29.9391 8.15085L 22.0203 0.472133L 20.9761 1.54899L 28.8949 9.22771L 29.9391 8.15085ZM 21.4982 0.26056L 1.01056 0.26056L 1.01056 1.76056L 21.4982 1.76056L 21.4982 0.26056ZM 0.26056 1.01056L 0.26056 37.76L 1.76056 37.76L 1.76056 1.01056L 0.26056 1.01056Z"/>
<path  fill="#ffffff" stroke="#ffffff" id="path2_fill" d="M 8.7232 8.47552L -7.42187e-07 8.47552L -7.42187e-07 -5.85937e-07L 1.00992 -5.85937e-07L 1.00992 7.46496L 8.7232 7.46496L 8.7232 8.47552Z"/>
<path  fill="#ffffff" stroke="#ffffff" id="path3_stroke" d="M 8.7232 8.47552L 8.7232 9.22552L 9.4732 9.22552L 9.4732 8.47552L 8.7232 8.47552ZM -7.42187e-07 8.47552L -0.750001 8.47552L -0.750001 9.22552L -7.42187e-07 9.22552L -7.42187e-07 8.47552ZM -7.42187e-07 -5.85937e-07L -7.42187e-07 -0.750001L -0.750001 -0.750001L -0.750001 -5.85937e-07L -7.42187e-07 -5.85937e-07ZM 1.00992 -5.85937e-07L 1.75992 -5.85937e-07L 1.75992 -0.750001L 1.00992 -0.750001L 1.00992 -5.85937e-07ZM 1.00992 7.46496L 0.259921 7.46496L 0.259921 8.21496L 1.00992 8.21496L 1.00992 7.46496ZM 8.7232 7.46496L 9.4732 7.46496L 9.4732 6.71496L 8.7232 6.71496L 8.7232 7.46496ZM 8.7232 7.72552L -7.42187e-07 7.72552L -7.42187e-07 9.22552L 8.7232 9.22552L 8.7232 7.72552ZM 0.749999 8.47552L 0.749999 -5.85937e-07L -0.750001 -5.85937e-07L -0.750001 8.47552L 0.749999 8.47552ZM -7.42187e-07 0.749999L 1.00992 0.749999L 1.00992 -0.750001L -7.42187e-07 -0.750001L -7.42187e-07 0.749999ZM 0.259921 -5.85937e-07L 0.259921 7.46496L 1.75992 7.46496L 1.75992 -5.85937e-07L 0.259921 -5.85937e-07ZM 1.00992 8.21496L 8.7232 8.21496L 8.7232 6.71496L 1.00992 6.71496L 1.00992 8.21496ZM 7.9732 7.46496L 7.9732 8.47552L 9.4732 8.47552L 9.4732 7.46496L 7.9732 7.46496Z"/>
<path  fill="#ffffff" stroke="#ffffff" id="path4_fill" d="M 30.4275 38.7712L 20.6925 38.7712L 20.6925 37.7606L 29.4163 37.7606L 29.4163 8.68928L 21.4989 1.01056L 1.01056 1.01056L 1.01056 9.7344L -5.27344e-07 9.7344L -5.27344e-07 0L 21.9091 0L 30.4275 8.26112L 30.4275 38.7712Z"/>
<path  fill="#ffffff" stroke="#ffffff" id="path5_stroke" d="M 30.4275 38.7712L 30.4275 39.5212L 31.1775 39.5212L 31.1775 38.7712L 30.4275 38.7712ZM 20.6925 38.7712L 19.9425 38.7712L 19.9425 39.5212L 20.6925 39.5212L 20.6925 38.7712ZM 20.6925 37.7606L 20.6925 37.0106L 19.9425 37.0106L 19.9425 37.7606L 20.6925 37.7606ZM 29.4163 37.7606L 29.4163 38.5106L 30.1663 38.5106L 30.1663 37.7606L 29.4163 37.7606ZM 29.4163 8.68928L 30.1663 8.68928L 30.1663 8.37187L 29.9385 8.1509L 29.4163 8.68928ZM 21.4989 1.01056L 22.021 0.472176L 21.8028 0.26056L 21.4989 0.26056L 21.4989 1.01056ZM 1.01056 1.01056L 1.01056 0.26056L 0.260561 0.26056L 0.260561 1.01056L 1.01056 1.01056ZM 1.01056 9.7344L 1.01056 10.4844L 1.76056 10.4844L 1.76056 9.7344L 1.01056 9.7344ZM -5.27344e-07 9.7344L -0.750001 9.7344L -0.750001 10.4844L -5.27344e-07 10.4844L -5.27344e-07 9.7344ZM -5.27344e-07 0L -5.27344e-07 -0.75L -0.750001 -0.75L -0.750001 0L -5.27344e-07 0ZM 21.9091 0L 22.4313 -0.538398L 22.2131 -0.75L 21.9091 -0.75L 21.9091 0ZM 30.4275 8.26112L 31.1775 8.26112L 31.1775 7.9437L 30.9497 7.72272L 30.4275 8.26112ZM 30.4275 38.0212L 20.6925 38.0212L 20.6925 39.5212L 30.4275 39.5212L 30.4275 38.0212ZM 21.4425 38.7712L 21.4425 37.7606L 19.9425 37.7606L 19.9425 38.7712L 21.4425 38.7712ZM 20.6925 38.5106L 29.4163 38.5106L 29.4163 37.0106L 20.6925 37.0106L 20.6925 38.5106ZM 30.1663 37.7606L 30.1663 8.68928L 28.6663 8.68928L 28.6663 37.7606L 30.1663 37.7606ZM 29.9385 8.1509L 22.021 0.472176L 20.9767 1.54894L 28.8942 9.22766L 29.9385 8.1509ZM 21.4989 0.26056L 1.01056 0.26056L 1.01056 1.76056L 21.4989 1.76056L 21.4989 0.26056ZM 0.260561 1.01056L 0.260561 9.7344L 1.76056 9.7344L 1.76056 1.01056L 0.260561 1.01056ZM 1.01056 8.9844L -5.27344e-07 8.9844L -5.27344e-07 10.4844L 1.01056 10.4844L 1.01056 8.9844ZM 0.749999 9.7344L 0.749999 0L -0.750001 0L -0.750001 9.7344L 0.749999 9.7344ZM -5.27344e-07 0.75L 21.9091 0.75L 21.9091 -0.75L -5.27344e-07 -0.75L -5.27344e-07 0.75ZM 21.387 0.538398L 29.9054 8.79952L 30.9497 7.72272L 22.4313 -0.538398L 21.387 0.538398ZM 29.6775 8.26112L 29.6775 38.7712L 31.1775 38.7712L 31.1775 8.26112L 29.6775 8.26112Z"/>
<path  fill="#ffffff" stroke="#ffffff" id="path6_fill" d="M 8.72448 8.47552L -1.91406e-06 8.47552L -1.91406e-06 -2.83203e-07L 1.0112 -2.83203e-07L 1.0112 7.46496L 8.72448 7.46496L 8.72448 8.47552Z"/>
<path  fill="#ffffff" stroke="#ffffff" id="path7_stroke" d="M 8.72448 8.47552L 8.72448 9.22552L 9.47448 9.22552L 9.47448 8.47552L 8.72448 8.47552ZM -1.91406e-06 8.47552L -0.750002 8.47552L -0.750002 9.22552L -1.91406e-06 9.22552L -1.91406e-06 8.47552ZM -1.91406e-06 -2.83203e-07L -1.91406e-06 -0.75L -0.750002 -0.75L -0.750002 -2.83203e-07L -1.91406e-06 -2.83203e-07ZM 1.0112 -2.83203e-07L 1.7612 -2.83203e-07L 1.7612 -0.75L 1.0112 -0.75L 1.0112 -2.83203e-07ZM 1.0112 7.46496L 0.261199 7.46496L 0.261199 8.21496L 1.0112 8.21496L 1.0112 7.46496ZM 8.72448 7.46496L 9.47448 7.46496L 9.47448 6.71496L 8.72448 6.71496L 8.72448 7.46496ZM 8.72448 7.72552L -1.91406e-06 7.72552L -1.91406e-06 9.22552L 8.72448 9.22552L 8.72448 7.72552ZM 0.749998 8.47552L 0.749998 -2.83203e-07L -0.750002 -2.83203e-07L -0.750002 8.47552L 0.749998 8.47552ZM -1.91406e-06 0.75L 1.0112 0.75L 1.0112 -0.75L -1.91406e-06 -0.75L -1.91406e-06 0.75ZM 0.261199 -2.83203e-07L 0.261199 7.46496L 1.7612 7.46496L 1.7612 -2.83203e-07L 0.261199 -2.83203e-07ZM 1.0112 8.21496L 8.72448 8.21496L 8.72448 6.71496L 1.0112 6.71496L 1.0112 8.21496ZM 7.97448 7.46496L 7.97448 8.47552L 9.47448 8.47552L 9.47448 7.46496L 7.97448 7.46496Z"/>
</defs>
</svg>
