<svg width="94" height="94" viewBox="0 0 94 94" version="1.1" xmlns="http://www.w3.org/2000/svg" xmlns:xlink="http://www.w3.org/1999/xlink" xmlns:figma="http://www.figma.com/figma/ns">
<title>logo</title>
<desc>Created using Figma</desc>
<g id="Canvas" transform="translate(-3790 -719)" figma:type="canvas">
<g id="logo" style="mix-blend-mode:normal;" figma:type="frame">
<g id="Rectangle 3" style="mix-blend-mode:normal;" filter="url(#filter0_d)" figma:type="rounded-rectangle">
<use xlink:href="#path0_fill" transform="translate(3806 731)" fill="#FFFFFF" style="mix-blend-mode:normal;"/>
</g>
<g id="G" style="mix-blend-mode:normal;" figma:type="text">
<use xlink:href="#path1_fill" transform="translate(3806 731)" fill="#444444" style="mix-blend-mode:normal;"/>
</g>
</g>
</g>
<defs>
<filter id="filter0_d" filterUnits="userSpaceOnUse" x="3790" y="719" width="94" height="94" color-interpolation-filters="sRGB">
<feFlood flood-opacity="0" result="BackgroundImageFix"/>
<desc>type="dropShadow" x="0" y="4" size="16" spread="0" color="0,0,0,0.25" blend="normal"</desc>
<feColorMatrix in="SourceAlpha" type="matrix" values="0 0 0 0 0 0 0 0 0 0 0 0 0 0 0 0 0 0 255 0"/>
<feOffset dx="0" dy="4"/>
<feGaussianBlur stdDeviation="8"/>
<feColorMatrix type="matrix" values="0 0 0 0 0 0 0 0 0 0 0 0 0 0 0 0 0 0 0.25 0"/>
<feBlend mode="normal" in2="BackgroundImageFix" result="effect1_dropShadow"/>
<feBlend mode="normal" in="SourceGraphic" in2="effect1_dropShadow" result="shape"/>
</filter>
<path id="path0_fill" d="M 0 5C 0 2.23858 2.23858 0 5 0L 57 0C 59.7614 0 62 2.23858 62 5L 62 57C 62 59.7614 59.7614 62 57 62L 5 62C 2.23858 62 0 59.7614 0 57L 0 5Z"/>
<path id="path1_fill" d="M 44.7812 45.4727L 43.4688 45.4727C 42.9375 45.4727 42.2344 45.5664 41.3594 45.7539C 40.4844 45.9414 39.4609 46.2617 38.2891 46.7148C 37.7891 46.9023 37.2422 47.0742 36.6484 47.2305C 36.0547 47.3867 35.4453 47.5195 34.8203 47.6289C 34.2109 47.7383 33.6016 47.8242 32.9922 47.8867C 32.3828 47.9492 31.8125 47.9805 31.2812 47.9805C 28.875 47.9805 26.6719 47.5977 24.6719 46.832C 22.6719 46.0508 20.9531 44.9414 19.5156 43.5039C 18.0781 42.0508 16.9609 40.2852 16.1641 38.207C 15.3672 36.1133 14.9688 33.7539 14.9688 31.1289C 14.9688 29.6289 15.1172 28.1367 15.4141 26.6523C 15.7266 25.1523 16.1875 23.7305 16.7969 22.3867C 17.4219 21.0273 18.1953 19.7695 19.1172 18.6133C 20.0391 17.4414 21.1172 16.4258 22.3516 15.5664C 23.6016 14.707 25 14.0352 26.5469 13.5508C 28.1094 13.0664 29.8203 12.8242 31.6797 12.8242C 32.5391 12.8242 33.4141 12.8867 34.3047 13.0117C 35.1953 13.1367 36.0703 13.3164 36.9297 13.5508C 37.7891 13.7695 38.6172 14.043 39.4141 14.3711C 40.2109 14.6992 40.9453 15.0664 41.6172 15.4727L 41.4062 13.1758L 44.0547 13.1758L 44.0547 24.168L 42.3203 24.168C 42.2109 22.668 41.875 21.332 41.3125 20.1602C 40.75 18.9883 40.0078 18.0039 39.0859 17.207C 38.1797 16.4102 37.1172 15.8008 35.8984 15.3789C 34.6953 14.957 33.3984 14.7461 32.0078 14.7461C 30.3047 14.7461 28.7031 15.1289 27.2031 15.8945C 25.7031 16.6445 24.3984 17.6992 23.2891 19.0586C 22.1797 20.4023 21.2969 22.0117 20.6406 23.8867C 20 25.7461 19.6797 27.793 19.6797 30.0273C 19.6797 32.293 19.9922 34.3867 20.6172 36.3086C 21.2422 38.2148 22.1172 39.8633 23.2422 41.2539C 24.3828 42.6289 25.7422 43.707 27.3203 44.4883C 28.8984 45.2695 30.6328 45.6602 32.5234 45.6602C 33.1641 45.6602 33.8359 45.6133 34.5391 45.5195C 35.2422 45.4258 35.9453 45.2852 36.6484 45.0977C 37.3672 44.9102 38.0703 44.668 38.7578 44.3711C 39.4609 44.0586 40.125 43.6914 40.75 43.2695L 40.75 32.7695L 37.375 32.957L 37.375 30.8477L 48.2266 30.8477L 48.2266 32.418C 47.6328 32.418 47.1328 32.5352 46.7266 32.7695C 46.3203 32.9883 45.9922 33.2773 45.7422 33.6367C 45.4922 33.9805 45.2969 34.3711 45.1562 34.8086C 45.0312 35.2305 44.9375 35.6523 44.875 36.0742C 44.8281 36.4961 44.7969 36.8945 44.7812 37.2695C 44.7812 37.6289 44.7812 37.918 44.7812 38.1367L 44.7812 45.4727Z"/>
</defs>
</svg>
