<svg width="40" height="50" viewBox="0 0 40 50" version="1.1" xmlns="http://www.w3.org/2000/svg" xmlns:xlink="http://www.w3.org/1999/xlink" xmlns:figma="http://www.figma.com/figma/ns">
<title>Refresh</title>
<desc>Created using Figma</desc>
<g id="Canvas" transform="translate(-3952 -1548)" figma:type="canvas">
<g id="Refresh" style="mix-blend-mode:normal;" figma:type="frame">
<g id="Vector" style="mix-blend-mode:normal;" figma:type="vector">
<use xlink:href="#path0_fill" transform="translate(3963.33 1559.62)" style="mix-blend-mode:normal;"/>
<use xlink:href="#path1_stroke" transform="translate(3963.33 1559.62)" style="mix-blend-mode:normal;"/>
</g>
<g id="Vector" style="mix-blend-mode:normal;" figma:type="vector">
<use xlink:href="#path2_fill" transform="translate(3953 1549)" style="mix-blend-mode:normal;"/>
<use xlink:href="#path3_stroke" transform="translate(3953 1549)" style="mix-blend-mode:normal;"/>
</g>
</g>
</g>
<defs>
<path id="path0_fill" d="M 0.407264 32.1022L 8.03535 37.2267C 8.19026 37.3292 8.36766 37.3816 8.54505 37.3816C 8.69247 37.3816 8.83988 37.3467 8.9748 37.2742C 9.27213 37.1143 9.45952 36.8045 9.45952 36.4672L 9.45952 32.2346C 19.4437 31.7549 27.4216 23.4822 27.4216 13.383C 27.4216 8.47088 25.5452 3.81608 22.1372 0.280623C 21.7874 -0.0841657 21.2077 -0.0941593 20.8429 0.255638C 20.4781 0.605436 20.4682 1.1851 20.8179 1.54989C 23.8962 4.74304 25.5902 8.94311 25.5902 13.3805C 25.5902 22.4728 18.4343 29.9235 9.45952 30.4007L 9.45952 26.2181C 9.45952 25.8808 9.27213 25.5685 8.9748 25.4111C 8.67498 25.2537 8.31519 25.2712 8.03285 25.4585L 0.404765 30.5831C 0.152411 30.753 -1.90624e-07 31.0378 -1.90624e-07 31.3426C 0.00249836 31.6475 0.15491 31.9323 0.407264 32.1022ZM 7.63058 27.9346L 7.63058 34.7482L 2.56102 31.3426L 7.63058 27.9346Z"/>
<path id="path1_stroke" d="M 0.407264 32.1022L 0.128022 32.517L 0.128441 32.5172L 0.407264 32.1022ZM 8.03535 37.2267L 7.75652 37.6418L 7.75955 37.6438L 8.03535 37.2267ZM 8.9748 37.2742L 9.21137 37.7147L 9.21163 37.7146L 8.9748 37.2742ZM 9.45952 32.2346L 9.43553 31.7352L 8.95952 31.7581L 8.95952 32.2346L 9.45952 32.2346ZM 22.1372 0.280623L 21.7763 0.626684L 21.7772 0.62763L 22.1372 0.280623ZM 20.8179 1.54989L 20.4571 1.89595L 20.458 1.8969L 20.8179 1.54989ZM 9.45952 30.4007L 8.95952 30.4007L 8.95952 30.928L 9.48607 30.9L 9.45952 30.4007ZM 8.9748 25.4111L 9.20875 24.9692L 9.20722 24.9684L 8.9748 25.4111ZM 8.03285 25.4585L 7.75635 25.0419L 7.75403 25.0435L 8.03285 25.4585ZM 0.404765 30.5831L 0.125942 30.168L 0.125522 30.1683L 0.404765 30.5831ZM -1.90624e-07 31.3426L -0.500017 31.3426L -0.499983 31.3467L -1.90624e-07 31.3426ZM 7.63058 27.9346L 8.13058 27.9346L 8.13058 26.996L 7.35163 27.5197L 7.63058 27.9346ZM 7.63058 34.7482L 7.35177 35.1632L 8.13058 35.6864L 8.13058 34.7482L 7.63058 34.7482ZM 2.56102 31.3426L 2.28206 30.9277L 1.66458 31.3428L 2.2822 31.7577L 2.56102 31.3426ZM 0.128441 32.5172L 7.75652 37.6418L 8.31417 36.8117L 0.686087 31.6872L 0.128441 32.5172ZM 7.75955 37.6438C 7.97913 37.7824 8.29601 37.8765 8.54505 37.8816L 8.54505 36.8816C 8.4393 36.8868 8.40138 36.8759 8.31114 36.8097L 7.75955 37.6438ZM 8.54505 37.8816C 8.75058 37.8783 9.01738 37.8141 9.21137 37.7147L 8.73824 36.8337C 8.66238 36.8792 8.63435 36.885 8.54505 36.8816L 8.54505 37.8816ZM 9.21163 37.7146C 9.66894 37.4686 9.95952 36.9909 9.95952 36.4672L 8.95952 36.4672C 8.95952 36.6181 8.87532 36.76 8.73797 36.8338L 9.21163 37.7146ZM 9.95952 36.4672L 9.95952 32.2346L 8.95952 32.2346L 8.95952 36.4672L 9.95952 36.4672ZM 9.48352 32.734C 19.7327 32.2416 27.9216 23.7506 27.9216 13.383L 26.9216 13.383C 26.9216 23.2138 19.1548 31.2682 9.43553 31.7352L 9.48352 32.734ZM 27.9216 13.383C 27.9216 8.3416 25.9951 3.56236 22.4972 -0.0663835L 21.7772 0.62763C 25.0953 4.06979 26.9216 8.60017 26.9216 13.383L 27.9216 13.383ZM 22.4981 -0.065437C 21.9556 -0.631112 21.0594 -0.644664 20.4969 -0.105253L 21.189 0.616529C 21.356 0.456345 21.6191 0.462781 21.7763 0.626683L 22.4981 -0.065437ZM 20.4969 -0.105253C 19.9312 0.437174 19.9176 1.33342 20.4571 1.89595L 21.1788 1.20383C 21.0187 1.03678 21.0251 0.773697 21.189 0.616529L 20.4969 -0.105253ZM 20.458 1.8969C 23.4463 4.9968 25.0902 9.07245 25.0902 13.3805L 26.0902 13.3805C 26.0902 8.81377 24.346 4.48928 21.1779 1.20287L 20.458 1.8969ZM 25.0902 13.3805C 25.0902 22.2053 18.144 29.4382 9.43297 29.9014L 9.48607 30.9C 18.7247 30.4087 26.0902 22.7402 26.0902 13.3805L 25.0902 13.3805ZM 9.95952 30.4007L 9.95952 26.2181L 8.95952 26.2181L 8.95952 30.4007L 9.95952 30.4007ZM 9.95952 26.2181C 9.95952 25.6965 9.67058 25.2137 9.20875 24.9692L 8.74086 25.853C 8.87368 25.9233 8.95952 26.0651 8.95952 26.2181L 9.95952 26.2181ZM 9.20722 24.9684C 8.74667 24.7266 8.19173 24.753 7.75635 25.042L 8.30935 25.8751C 8.43864 25.7893 8.60328 25.7807 8.74239 25.8538L 9.20722 24.9684ZM 7.75403 25.0435L 0.125942 30.168L 0.683588 30.9981L 8.31167 25.8736L 7.75403 25.0435ZM 0.125522 30.1683C -0.264234 30.4307 -0.5 30.8707 -0.5 31.3426L 0.5 31.3426C 0.5 31.2049 0.569055 31.0752 0.684007 30.9978L 0.125522 30.1683ZM -0.499983 31.3467C -0.496141 31.8155 -0.261932 32.2544 0.128022 32.517L 0.686507 31.6874C 0.571753 31.6102 0.501138 31.4794 0.499983 31.3385L -0.499983 31.3467ZM 7.13058 27.9346L 7.13058 34.7482L 8.13058 34.7482L 8.13058 27.9346L 7.13058 27.9346ZM 7.90939 34.3331L 2.83983 30.9276L 2.2822 31.7577L 7.35177 35.1632L 7.90939 34.3331ZM 2.83997 31.7576L 7.90953 28.3496L 7.35163 27.5197L 2.28206 30.9277L 2.83997 31.7576Z"/>
<path id="path2_fill" d="M 17.9621 6.97875L 17.9621 11.1613C 17.9621 11.4986 18.1495 11.811 18.4468 11.9684C 18.5817 12.0408 18.7292 12.0783 18.8766 12.0783C 19.054 12.0783 19.2339 12.0258 19.3863 11.9234L 27.0144 6.79885C 27.2667 6.62895 27.4191 6.34412 27.4191 6.03929C 27.4191 5.73447 27.2667 5.44964 27.0144 5.27973L 19.3863 0.1552C 19.1064 -0.0321911 18.7441 -0.0521796 18.4443 0.107728C 18.147 0.267635 17.9596 0.577456 17.9596 0.91476L 17.9596 5.14731C 7.97538 5.62453 4.28905e-07 13.8972 4.28905e-07 23.9989C 4.28905e-07 29.1709 2.05131 33.9981 5.77666 37.5885C 5.95405 37.7584 6.18392 37.8459 6.41129 37.8459C 6.65115 37.8459 6.89101 37.7534 7.07091 37.566C 7.4207 37.2013 7.41071 36.6216 7.04592 36.2718C 3.68287 33.0287 1.83144 28.6712 1.83144 23.9989C 1.83144 14.9067 8.9873 7.45597 17.9621 6.97875ZM 19.791 2.63127L 24.8606 6.0368L 19.791 9.44232L 19.791 2.63127Z"/>
<path id="path3_stroke" d="M 17.9621 6.97875L 18.4621 6.97875L 18.4621 6.45146L 17.9355 6.47946L 17.9621 6.97875ZM 18.4468 11.9684L 18.6834 11.5279L 18.6808 11.5265L 18.4468 11.9684ZM 19.3863 11.9234L 19.1075 11.5083L 19.1074 11.5084L 19.3863 11.9234ZM 27.0144 6.79885L 27.2932 7.21389L 27.2936 7.21361L 27.0144 6.79885ZM 27.0144 5.27973L 27.2936 4.86498L 27.2932 4.86469L 27.0144 5.27973ZM 19.3863 0.1552L 19.6651 -0.25984L 19.6645 -0.260253L 19.3863 0.1552ZM 18.4443 0.107728L 18.209 -0.333451L 18.2075 -0.332626L 18.4443 0.107728ZM 17.9596 5.14731L 17.9835 5.64674L 18.4596 5.62398L 18.4596 5.14731L 17.9596 5.14731ZM 5.77666 37.5885L 5.42968 37.9485L 5.43081 37.9496L 5.77666 37.5885ZM 7.07091 37.566L 7.4316 37.9123L 7.4318 37.9121L 7.07091 37.566ZM 7.04592 36.2718L 6.69884 36.6317L 6.69986 36.6327L 7.04592 36.2718ZM 19.791 2.63127L 20.0699 2.21622L 19.291 1.69305L 19.291 2.63127L 19.791 2.63127ZM 24.8606 6.0368L 25.1394 6.45184L 25.7573 6.0368L 25.1394 5.62175L 24.8606 6.0368ZM 19.791 9.44232L 19.291 9.44232L 19.291 10.3805L 20.0699 9.85737L 19.791 9.44232ZM 17.4621 6.97875L 17.4621 11.1613L 18.4621 11.1613L 18.4621 6.97875L 17.4621 6.97875ZM 17.4621 11.1613C 17.4621 11.6829 17.751 12.1658 18.2129 12.4103L 18.6808 11.5265C 18.5479 11.4561 18.4621 11.3144 18.4621 11.1613L 17.4621 11.1613ZM 18.2103 12.4089C 18.4005 12.5068 18.6671 12.5744 18.8766 12.5783L 18.8766 11.5783C 18.7912 11.5822 18.763 11.5748 18.6834 11.5279L 18.2103 12.4089ZM 18.8766 12.5783C 19.1247 12.5733 19.4458 12.4787 19.6652 12.3384L 19.1074 11.5084C 19.0219 11.573 18.9833 11.5833 18.8766 11.5783L 18.8766 12.5783ZM 19.6651 12.3384L 27.2932 7.21389L 26.7355 6.38382L 19.1075 11.5083L 19.6651 12.3384ZM 27.2936 7.21361C 27.6834 6.9512 27.9191 6.51121 27.9191 6.03929L 26.9191 6.03929C 26.9191 6.17702 26.8501 6.30671 26.7351 6.3841L 27.2936 7.21361ZM 27.9191 6.03929C 27.9191 5.56737 27.6834 5.12739 27.2936 4.86498L 26.7351 5.69449C 26.8501 5.77188 26.9191 5.90157 26.9191 6.03929L 27.9191 6.03929ZM 27.2932 4.86469L 19.6651 -0.259839L 19.1075 0.57024L 26.7355 5.69477L 27.2932 4.86469ZM 19.6645 -0.260253C 19.2324 -0.549603 18.6728 -0.580778 18.209 -0.333449L 18.6796 0.548904C 18.8155 0.476419 18.9805 0.485221 19.1081 0.570654L 19.6645 -0.260253ZM 18.2075 -0.332626C 17.7502 -0.0866775 17.4596 0.391059 17.4596 0.91476L 18.4596 0.91476C 18.4596 0.763853 18.5438 0.621948 18.6811 0.548082L 18.2075 -0.332626ZM 17.4596 0.91476L 17.4596 5.14731L 18.4596 5.14731L 18.4596 0.91476L 17.4596 0.91476ZM 17.9357 4.64788C 7.68631 5.13778 -0.5 13.629 -0.5 23.9989L 0.5 23.9989C 0.5 14.1655 8.26446 6.11129 17.9835 5.64674L 17.9357 4.64788ZM -0.5 23.9989C -0.5 29.3067 1.60655 34.2639 5.42968 37.9485L 6.12363 37.2285C 2.49608 33.7323 0.5 29.0351 0.5 23.9989L -0.5 23.9989ZM 5.43081 37.9496C 5.70252 38.2099 6.05677 38.3459 6.41129 38.3459L 6.41129 37.3459C 6.31107 37.3459 6.20558 37.307 6.1225 37.2274L 5.43081 37.9496ZM 6.41129 38.3459C 6.77961 38.3459 7.15222 38.2033 7.4316 37.9123L 6.71021 37.2198C 6.6298 37.3035 6.52269 37.3459 6.41129 37.3459L 6.41129 38.3459ZM 7.4318 37.9121C 7.97121 37.3496 7.95765 36.4533 7.39198 35.9109L 6.69986 36.6327C 6.86376 36.7899 6.8702 37.0529 6.71002 37.22L 7.4318 37.9121ZM 7.393 35.9119C 4.12767 32.763 2.33144 28.5354 2.33144 23.9989L 1.33144 23.9989C 1.33144 28.8069 3.23807 33.2943 6.69884 36.6317L 7.393 35.9119ZM 2.33144 23.9989C 2.33144 15.1741 9.27767 7.94124 17.9886 7.47805L 17.9355 6.47946C 8.69692 6.97071 1.33144 14.6392 1.33144 23.9989L 2.33144 23.9989ZM 19.5122 3.04631L 24.5818 6.45184L 25.1394 5.62175L 20.0699 2.21622L 19.5122 3.04631ZM 24.5818 5.62175L 19.5122 9.02728L 20.0699 9.85737L 25.1394 6.45184L 24.5818 5.62175ZM 20.291 9.44232L 20.291 2.63127L 19.291 2.63127L 19.291 9.44232L 20.291 9.44232Z"/>
</defs>
</svg>
