<svg width="63" height="52" viewBox="0 0 63 52" version="1.1" xmlns="http://www.w3.org/2000/svg" xmlns:xlink="http://www.w3.org/1999/xlink" xmlns:figma="http://www.figma.com/figma/ns">
<title>image icon</title>
<desc>Created using Figma</desc>
<g id="Canvas" transform="translate(396 -332)" figma:type="canvas">
<g id="image icon" style="mix-blend-mode:normal;" figma:type="frame">
<g id="Vector" style="mix-blend-mode:normal;" figma:type="vector">
<use xlink:href="#path0_stroke" transform="translate(-394 334)" style="mix-blend-mode:normal;"/>
</g>
<g id="Vector" style="mix-blend-mode:normal;" figma:type="vector">
<use xlink:href="#path1_stroke" transform="translate(-390.928 351.252)" style="mix-blend-mode:normal;"/>
</g>
<g id="Vector" style="mix-blend-mode:normal;" figma:type="vector">
<use xlink:href="#path2_stroke" transform="translate(-366.549 342.423)" style="mix-blend-mode:normal;"/>
</g>
<g id="Vector" style="mix-blend-mode:normal;" figma:type="vector">
<use xlink:href="#path3_stroke" transform="translate(-388.184 338.581)" style="mix-blend-mode:normal;"/>
</g>
</g>
</g>
<defs>
<path id="path0_stroke" d="M 0 0L 0 -1.5L -1.5 -1.5L -1.5 0L 0 0ZM 58.752 0L 60.252 0L 60.252 -1.5L 58.752 -1.5L 58.752 0ZM 58.752 48L 58.752 49.5L 60.252 49.5L 60.252 48L 58.752 48ZM 0 48L -1.5 48L -1.5 49.5L 0 49.5L 0 48ZM 0 1.5L 58.752 1.5L 58.752 -1.5L 0 -1.5L 0 1.5ZM 57.252 0L 57.252 48L 60.252 48L 60.252 0L 57.252 0ZM 58.752 46.5L 0 46.5L 0 49.5L 58.752 49.5L 58.752 46.5ZM 1.5 48L 1.5 0L -1.5 0L -1.5 48L 1.5 48Z"/>
<path id="path1_stroke" d="M -1.10732 17.2765C -1.66615 17.8881 -1.62341 18.8369 -1.01185 19.3957C -0.400297 19.9545 0.548488 19.9118 1.10732 19.3002L -1.10732 17.2765ZM 16.7117 9.60938e-07L 17.843 -0.984971L 16.7387 -2.25325L 15.6044 -1.01185L 16.7117 9.60938e-07ZM 31.5033 19.2734C 32.0473 19.8982 32.9948 19.9637 33.6196 19.4197C 34.2444 18.8757 34.3099 17.9282 33.7659 17.3034L 31.5033 19.2734ZM 1.10732 19.3002L 17.819 1.01185L 15.6044 -1.01185L -1.10732 17.2765L 1.10732 19.3002ZM 15.5804 0.984973L 31.5033 19.2734L 33.7659 17.3034L 17.843 -0.984971L 15.5804 0.984973Z"/>
<path id="path2_stroke" d="M -1.14662 16.1117C -1.68073 16.745 -1.60035 17.6913 -0.967086 18.2254C -0.333824 18.7595 0.612516 18.6791 1.14662 18.0459L -1.14662 16.1117ZM 14.4046 -7.26563e-07L 15.5318 -0.989705L 14.3817 -2.29946L 13.258 -0.967087L 14.4046 -7.26563e-07ZM 27.467 17.15C 28.0136 17.7725 28.9614 17.834 29.5839 17.2874C 30.2064 16.7408 30.2679 15.7931 29.7213 15.1706L 27.467 17.15ZM 1.14662 18.0459L 15.5512 0.967085L 13.258 -0.967087L -1.14662 16.1117L 1.14662 18.0459ZM 13.2775 0.989704L 27.467 17.15L 29.7213 15.1706L 15.5318 -0.989705L 13.2775 0.989704Z"/>
<path id="path3_stroke" d="M 8.84342 5.17171C 8.84342 7.19954 7.19954 8.84342 5.17171 8.84342L 5.17171 11.8434C 8.85639 11.8434 11.8434 8.8564 11.8434 5.17171L 8.84342 5.17171ZM 5.17171 8.84342C 3.14388 8.84342 1.5 7.19954 1.5 5.17171L -1.5 5.17171C -1.5 8.8564 1.48703 11.8434 5.17171 11.8434L 5.17171 8.84342ZM 1.5 5.17171C 1.5 3.14388 3.14388 1.5 5.17171 1.5L 5.17171 -1.5C 1.48703 -1.5 -1.5 1.48703 -1.5 5.17171L 1.5 5.17171ZM 5.17171 1.5C 7.19954 1.5 8.84342 3.14388 8.84342 5.17171L 11.8434 5.17171C 11.8434 1.48703 8.8564 -1.5 5.17171 -1.5L 5.17171 1.5Z"/>
</defs>
</svg>
